<svg xmlns="http://www.w3.org/2000/svg" viewBox="0 0 64 64" aria-hidden="true">
  <!-- Ears -->
  <circle cx="16" cy="14" r="8" fill="#1f2937"/>
  <circle cx="48" cy="14" r="8" fill="#1f2937"/>
  <circle cx="16" cy="14" r="4" fill="#111827"/>
  <circle cx="48" cy="14" r="4" fill="#111827"/>

  <!-- Head -->
  <ellipse cx="32" cy="34" rx="22" ry="20" fill="#ffffff"/>

  <!-- Eye patches -->
  <ellipse cx="23" cy="32" rx="6" ry="8" transform="rotate(-20 23 32)" fill="#1f2937"/>
  <ellipse cx="41" cy="32" rx="6" ry="8" transform="rotate(20 41 32)" fill="#1f2937"/>

  <!-- Eyes -->
  <circle cx="23" cy="33" r="2.4" fill="#ffffff"/>
  <circle cx="41" cy="33" r="2.4" fill="#ffffff"/>
  <circle cx="23.6" cy="33.4" r="1.2" fill="#111827"/>
  <circle cx="41.6" cy="33.4" r="1.2" fill="#111827"/>

  <!-- Nose -->
  <ellipse cx="32" cy="40" rx="2.6" ry="1.8" fill="#111827"/>

  <!-- Mouth -->
  <path d="M32 42 V45 M32 45 Q29 47 27 45 M32 45 Q35 47 37 45"
        stroke="#111827" stroke-width="1.4" stroke-linecap="round" fill="none"/>
</svg>
